<svg xmlns="http://www.w3.org/2000/svg" xmlns:xlink="http://www.w3.org/1999/xlink" viewBox="0 0 651.97 651.97"><defs><style>.cls-1{fill:url(#linear-gradient);}</style><linearGradient id="linear-gradient" x1="325.98" y1="651.97" x2="325.98" gradientUnits="userSpaceOnUse"><stop offset="0" stop-color="#f31489"/><stop offset="0.14" stop-color="#db1391"/><stop offset="0.73" stop-color="#7a0db0"/><stop offset="1" stop-color="#530bbd"/></linearGradient></defs><g id="Layer_2" data-name="Layer 2"><g id="Layer_1-2" data-name="Layer 1"><path class="cls-1" d="M.31,652a53.76,53.76,0,0,1,59.24-59.24,53.76,53.76,0,0,0,59.24-59.24A53.78,53.78,0,0,1,178,474.24,53.76,53.76,0,0,0,237.28,415a53.76,53.76,0,0,1,59.24-59.24,53.78,53.78,0,0,0,59.24-59.24A53.76,53.76,0,0,1,415,237.28,53.76,53.76,0,0,0,474.24,178a53.78,53.78,0,0,1,59.25-59.25,53.76,53.76,0,0,0,59.24-59.24A53.76,53.76,0,0,1,652,.31V652Z"/></g></g></svg>