<svg xmlns="http://www.w3.org/2000/svg" width="168.186" height="34.446" viewBox="0 0 168.186 34.446">
  <g id="Group_3" data-name="Group 3" transform="translate(-713.871 -462.434)">
    <g id="justclip.me" transform="translate(749.16 465.15)" style="isolation: isolate">
      <g id="Group_1" data-name="Group 1" transform="translate(0)" style="isolation: isolate">
        <path id="Path_2" data-name="Path 2" d="M894.248,560.99a2.489,2.489,0,0,1-.75-.918,2.907,2.907,0,0,1-.264-1.272,3.57,3.57,0,0,1,1.617-2.91,10.712,10.712,0,0,1,3.321-1.573l3.219-15.169h4.336l-2.983,13.963a5.193,5.193,0,0,0,2.278-1.41,7.908,7.908,0,0,0,1.528-2.9h1.264a8.912,8.912,0,0,1-2.41,4.13,6.65,6.65,0,0,1-2.925,1.5l-.456,2.175a6.676,6.676,0,0,1-2.278,4.175,5.061,5.061,0,0,1-3.131.94A3.727,3.727,0,0,1,894.248,560.99Zm2.631-2.278a4.959,4.959,0,0,0,.779-2.014l.191-.867a8.207,8.207,0,0,0-2.058,1.043,1.908,1.908,0,0,0-.9,1.514.925.925,0,0,0,.25.661,1,1,0,0,0,.779.324Q896.394,559.373,896.879,558.711Zm6.305-21.407a2.341,2.341,0,0,1-.764-.507,2.186,2.186,0,0,1-.507-.75,2.375,2.375,0,0,1-.184-.926,2.43,2.43,0,0,1,.184-.933,2.327,2.327,0,0,1,.507-.772,2.446,2.446,0,0,1,.764-.514,2.34,2.34,0,0,1,1.852,0,2.458,2.458,0,0,1,.764.514,2.431,2.431,0,0,1,.514.772,2.361,2.361,0,0,1,.191.933,2.257,2.257,0,0,1-.191.919,2.48,2.48,0,0,1-.514.757,2.353,2.353,0,0,1-.764.507,2.42,2.42,0,0,1-1.852,0Z" transform="translate(-893.234 -532.711)" fill="#1d1d1d"/>
        <path id="Path_3" data-name="Path 3" d="M918.956,559.281a3.723,3.723,0,0,1-.941-2.748,9.736,9.736,0,0,1,.235-1.97l2.043-9.657h4.336l-2.16,10.23a4.463,4.463,0,0,0-.088.852q0,1.234.9,1.235a1.95,1.95,0,0,0,1.484-.75,5.589,5.589,0,0,0,.926-1.911l2.043-9.657h4.336l-2.161,10.23a3.367,3.367,0,0,0-.132.97,1.091,1.091,0,0,0,.294.867,1.443,1.443,0,0,0,.941.25,1.962,1.962,0,0,0,1.5-.75,4.833,4.833,0,0,0,.941-1.911h1.264a11.332,11.332,0,0,1-1.955,3.631,5.731,5.731,0,0,1-2.19,1.587,5.139,5.139,0,0,1-1.9.353,2.876,2.876,0,0,1-2.058-.72,3.34,3.34,0,0,1-.926-2.131,6.509,6.509,0,0,1-2.322,2.352,4.416,4.416,0,0,1-2.131.5A3.047,3.047,0,0,1,918.956,559.281Z" transform="translate(-904.934 -538.469)" fill="#1d1d1d"/>
        <path id="Path_4" data-name="Path 4" d="M947.882,558.975a3.988,3.988,0,0,1-1.411-.918,3.654,3.654,0,0,1-.793-1.213,3.741,3.741,0,0,1-.265-1.389,3.27,3.27,0,0,1,.5-1.778,2.6,2.6,0,0,1,1.1-1.014,36.4,36.4,0,0,0,2.043-4.233q.868-2.146,1.661-4.688l4.453-.589q.177,3.822.324,5.865.146,2.1.249,3.086.089,1.147.088,2a4.183,4.183,0,0,1-.117,1.147,13.728,13.728,0,0,0,2.161-1.514h1.264a15.921,15.921,0,0,1-2.212,2.146,20.109,20.109,0,0,1-2.389,1.616,5.445,5.445,0,0,1-2.249,1.4,7.472,7.472,0,0,1-2.484.411A5.224,5.224,0,0,1,947.882,558.975Zm2.778-2.668a2.794,2.794,0,0,0,.808-2.175q0-.6-.073-1.514l-.074-.9q-.132-1.162-.264-2.69L950.9,547a26.443,26.443,0,0,1-1.014,2.712q-.588,1.345-1.426,2.977a1.16,1.16,0,0,1,.691,1.043,1.539,1.539,0,0,1-.353,1.014,1.2,1.2,0,0,1-.97.471,1.3,1.3,0,0,1-.492-.081.617.617,0,0,1-.316-.316,2.447,2.447,0,0,0,.426,1.594,1.748,1.748,0,0,0,1.411.507A2.578,2.578,0,0,0,950.661,556.307Z" transform="translate(-917.87 -537.641)" fill="#1d1d1d"/>
        <path id="Path_5" data-name="Path 5" d="M969.521,555.022a3.723,3.723,0,0,1-.941-2.748,9.741,9.741,0,0,1,.235-1.97l1.808-8.452h-1l.25-1.205h.985l.911-4.159,4.454-.6-1.029,4.762H977l-.235,1.205h-1.808l-1.925,9.025a3.356,3.356,0,0,0-.118.97,1.106,1.106,0,0,0,.287.867,1.41,1.41,0,0,0,.933.25,1.988,1.988,0,0,0,.86-.2,2.748,2.748,0,0,0,.772-.551,4.543,4.543,0,0,0,1.088-1.911h1.264a10.7,10.7,0,0,1-2.028,3.631,6.089,6.089,0,0,1-2.323,1.587,5.569,5.569,0,0,1-1.969.353A3.047,3.047,0,0,1,969.521,555.022Z" transform="translate(-928.808 -534.21)" fill="#1d1d1d"/>
        <path id="Path_6" data-name="Path 6" d="M984.783,558.78a4.774,4.774,0,0,1-1.279-3.66,13.008,13.008,0,0,1,.184-2.065,14.051,14.051,0,0,1,.565-2.271,10.724,10.724,0,0,1,2.543-4.38,6.618,6.618,0,0,1,4.806-2,3.646,3.646,0,0,1,2.675.867,3.052,3.052,0,0,1,.206,3.542,1.394,1.394,0,0,1-1.132.544,2,2,0,0,1-1.058-.353,4.993,4.993,0,0,0,.367-1.778,1.656,1.656,0,0,0-.213-.9.7.7,0,0,0-.625-.33q-.882,0-1.837,1.558a12.914,12.914,0,0,0-1.44,3.513,14.057,14.057,0,0,0-.589,3.777,2.854,2.854,0,0,0,.559,2.029,2.189,2.189,0,0,0,1.617.5,5.349,5.349,0,0,0,2.984-.882,7.287,7.287,0,0,0,1.1-.874q.529-.508,1.235-1.286h1.029a13.3,13.3,0,0,1-3.278,3.836,8.068,8.068,0,0,1-5,1.734A4.851,4.851,0,0,1,984.783,558.78Z" transform="translate(-935.854 -538.232)" fill="#1d1d1d"/>
        <path id="Path_7" data-name="Path 7" d="M1006.637,553.891a3.722,3.722,0,0,1-.941-2.748,9.705,9.705,0,0,1,.236-1.97l3.218-15.08,4.454-.6-3.454,16.255a3.355,3.355,0,0,0-.118.97,1.106,1.106,0,0,0,.287.867,1.411,1.411,0,0,0,.933.25,1.993,1.993,0,0,0,.86-.2,2.764,2.764,0,0,0,.772-.551,4.542,4.542,0,0,0,1.087-1.911h1.264a10.713,10.713,0,0,1-2.028,3.631,6.086,6.086,0,0,1-2.323,1.587,5.568,5.568,0,0,1-1.969.353A3.046,3.046,0,0,1,1006.637,553.891Z" transform="translate(-946.332 -533.079)" fill="#1d1d1d"/>
        <path id="Path_8" data-name="Path 8" d="M1021.868,553.549a3.723,3.723,0,0,1-.941-2.748,9.7,9.7,0,0,1,.235-1.97l2.043-9.657h4.336l-2.16,10.23a3.375,3.375,0,0,0-.117.97,1.1,1.1,0,0,0,.287.867,1.41,1.41,0,0,0,.933.25,1.988,1.988,0,0,0,.86-.2,2.757,2.757,0,0,0,.772-.551,4.543,4.543,0,0,0,1.088-1.911h1.263a10.7,10.7,0,0,1-2.028,3.631,6.083,6.083,0,0,1-2.322,1.587,5.573,5.573,0,0,1-1.97.353A3.047,3.047,0,0,1,1021.868,553.549Zm3.4-16.189a2.342,2.342,0,0,1-.765-.507,2.181,2.181,0,0,1-.507-.75,2.424,2.424,0,0,1,0-1.852,2.52,2.52,0,0,1,.507-.779,2.236,2.236,0,0,1,.765-.522,2.413,2.413,0,0,1,3.152,3.152,2.085,2.085,0,0,1-.522.75,2.51,2.51,0,0,1-.78.507,2.424,2.424,0,0,1-1.851,0Z" transform="translate(-953.523 -532.737)" fill="#1d1d1d"/>
        <path id="Path_9" data-name="Path 9" d="M1036.45,542.79h4.336l-.485,2.263a5.284,5.284,0,0,1,3.513-1.293,3.341,3.341,0,0,1,2.617,1.029,5.529,5.529,0,0,1,1.058,3.719,16.317,16.317,0,0,1-.617,4.557,9.657,9.657,0,0,1-2.264,4.218,6.1,6.1,0,0,1-4.527,1.852,3.991,3.991,0,0,1-1.719-.323,1.925,1.925,0,0,1-.838-.75l-1.558,7.334-4.541,1.088Zm5.2,12.243a9.449,9.449,0,0,0,1.323-3.263,14.585,14.585,0,0,0,.4-3.351,3.247,3.247,0,0,0-.544-2.117,1.254,1.254,0,0,0-.97-.382,1.952,1.952,0,0,0-1.1.382,3.258,3.258,0,0,0-.97,1.1l-1.779,8.422a.994.994,0,0,0,.39.492,1.3,1.3,0,0,0,.756.2A3.016,3.016,0,0,0,1041.653,555.033Z" transform="translate(-958.479 -537.47)" fill="#1d1d1d"/>
        <path id="Path_10" data-name="Path 10" d="M1066.486,569.186a2.311,2.311,0,0,1-1.271-1.272,2.417,2.417,0,0,1,0-1.852,2.338,2.338,0,0,1,.507-.764,2.45,2.45,0,0,1,.764-.515,2.347,2.347,0,0,1,1.852,0,2.641,2.641,0,0,1,.779.515,2.243,2.243,0,0,1,.522.764,2.431,2.431,0,0,1,0,1.852,2.239,2.239,0,0,1-.522.764,2.52,2.52,0,0,1-.779.507,2.426,2.426,0,0,1-1.852,0Z" transform="translate(-974.346 -547.764)" fill="#1d1d1d"/>
        <path id="Path_11" data-name="Path 11" d="M1092.795,558.943a3.468,3.468,0,0,1-.779-2.337,8.615,8.615,0,0,1,.169-1.572q.169-.9.507-2.307.338-1.441.507-2.3a7.911,7.911,0,0,0,.169-1.492q0-1.542-1.088-1.543a1.824,1.824,0,0,0-1.411.809,6.157,6.157,0,0,0-.94,1.969l-2.043,9.657h-4.336l2.2-10.391a3.089,3.089,0,0,0,.088-.75,1.847,1.847,0,0,0-.191-.926.8.8,0,0,0-.721-.4,1.839,1.839,0,0,0-1.484.822,6.149,6.149,0,0,0-.956,1.984l-2.043,9.657h-4.336l3.189-15.051h4.336l-.323,1.558a5.115,5.115,0,0,1,1.925-1.4,4.94,4.94,0,0,1,1.749-.309,3.175,3.175,0,0,1,2.013.588,3.116,3.116,0,0,1,1.073,2,5.7,5.7,0,0,1,2.234-2.116,4.358,4.358,0,0,1,1.955-.441,3.449,3.449,0,0,1,2.4.794,3.367,3.367,0,0,1,.941,2.6,14,14,0,0,1-.367,2.719q-.147.721-.353,1.455-.367,1.412-.6,2.6a5.612,5.612,0,0,0-.117,1,1.431,1.431,0,0,0,.271.933,1.148,1.148,0,0,0,.934.331,1.906,1.906,0,0,0,1.514-.735,7.413,7.413,0,0,0,1.014-1.926h1.264a9.627,9.627,0,0,1-2.822,4.63,4.39,4.39,0,0,1-2.778.941A3.422,3.422,0,0,1,1092.795,558.943Z" transform="translate(-979.579 -538.338)" fill="#1d1d1d"/>
        <path id="Path_12" data-name="Path 12" d="M1121.692,558.78a4.773,4.773,0,0,1-1.279-3.66,12.888,12.888,0,0,1,.184-2.058,15.08,15.08,0,0,1,.551-2.263,13.076,13.076,0,0,1,1.051-2.4,9.519,9.519,0,0,1,1.492-2,6.544,6.544,0,0,1,4.851-2,3.547,3.547,0,0,1,2.675.882,2.822,2.822,0,0,1,.647,2,5.329,5.329,0,0,1-.558,2.4,6.49,6.49,0,0,1-1.543,1.992,7.961,7.961,0,0,1-2.234,1.36,8.3,8.3,0,0,1-2.587.6q-.074.763-.073,1.205a2.854,2.854,0,0,0,.558,2.029,2.19,2.19,0,0,0,1.617.5,5.349,5.349,0,0,0,2.984-.882,7.264,7.264,0,0,0,1.1-.874q.529-.508,1.234-1.286h1.029a13.306,13.306,0,0,1-3.278,3.836,8.069,8.069,0,0,1-5,1.734A4.852,4.852,0,0,1,1121.692,558.78Zm5.115-7.07a5.14,5.14,0,0,0,1.411-1.117,5.5,5.5,0,0,0,.97-1.58,4.741,4.741,0,0,0,.353-1.786,1.987,1.987,0,0,0-.169-.918.6.6,0,0,0-.581-.316,1.609,1.609,0,0,0-1.095.529,6.155,6.155,0,0,0-1.066,1.455,13.246,13.246,0,0,0-.852,1.969,16.232,16.232,0,0,0-.6,2.249A4.015,4.015,0,0,0,1126.807,551.71Z" transform="translate(-1000.494 -538.232)" fill="#1d1d1d"/>
      </g>
    </g>
    <g id="paper-clip" transform="translate(713.871 462.434)">
      <g id="Group_2" data-name="Group 2" transform="translate(0 0)">
        <path id="Path_13" data-name="Path 13" d="M36.241,26.714l-4.049-4.05a4.576,4.576,0,0,0-6.453,0L7.868,40.539a5.481,5.481,0,0,0-1.605,3.875v1.969a3.132,3.132,0,0,0,3.131,3.132h1.969a5.48,5.48,0,0,0,3.875-1.605l15.294-15.3a.783.783,0,0,0,0-1.107L29.425,30.4a.783.783,0,0,0-1.107,0L13.024,45.7a2.349,2.349,0,0,1-1.661.688H9.394V44.414a2.35,2.35,0,0,1,.688-1.662L27.954,24.879a1.435,1.435,0,0,1,2.024,0l4.049,4.05a1.433,1.433,0,0,1,0,2.025L13.483,51.5a3.914,3.914,0,0,1-2.768,1.147H4.7a1.566,1.566,0,0,1-1.566-1.566V45.063a3.916,3.916,0,0,1,1.147-2.769L22.244,24.325a.783.783,0,0,0,0-1.107l-1.107-1.107a.783.783,0,0,0-1.107,0L2.063,40.08A7.047,7.047,0,0,0,0,45.063v6.018a4.7,4.7,0,0,0,4.7,4.7h6.018A7.045,7.045,0,0,0,15.7,53.715L36.241,33.167a4.564,4.564,0,0,0,0-6.454Z" transform="translate(0 -21.333)" fill="#1d1d1d"/>
      </g>
    </g>
  </g>
</svg>
